HIERARCHY
ROOT ui
{
	 OFFSET 0 0 0
	 CHANNELS 3 XPosition YPosition Z Position
	 EndSite
	 {
	 OFFSET 0 -1 0
	 }
}
ROOT li
{
	 OFFSET 0 0 0
	 CHANNELS 3 XPosition YPosition Z Position
	 EndSite
	 {
	 OFFSET 0 -1 0
	 }
}
ROOT ul
{
	 OFFSET 0 0 0
	 CHANNELS 3 XPosition YPosition Z Position
	 EndSite
	 {
	 OFFSET 0 -1 0
	 }
}
ROOT ll
{
	 OFFSET 0 0 0
	 CHANNELS 3 XPosition YPosition Z Position
	 EndSite
	 {
	 OFFSET 0 -1 0
	 }
}
ROOT tt
{
	 OFFSET 0 0 0
	 CHANNELS 3 XPosition YPosition Z Position
	 EndSite
	 {
	 OFFSET 0 -1 0
	 }
}
ROOT tb
{
	 OFFSET 0 0 0
	 CHANNELS 3 XPosition YPosition Z Position
	 EndSite
	 {
	 OFFSET 0 -1 0
	 }
}
ROOT td
{
	 OFFSET 0 0 0
	 CHANNELS 3 XPosition YPosition Z Position
	 EndSite
	 {
	 OFFSET 0 -1 0
	 }
}
ROOT v
{
	 OFFSET 0 0 0
	 CHANNELS 3 XPosition YPosition Z Position
	 EndSite
	 {
	 OFFSET 0 -1 0
	 }
}
ROOT bn
{
	 OFFSET 0 0 0
	 CHANNELS 3 XPosition YPosition Z Position
	 EndSite
	 {
	 OFFSET 0 -1 0
	 }
}
MOTION
Frames: 18
Frame Time: 0.002
-9.831000119447708E-6	0.0031919419765472413	0		0.555671630859375	-2.374092041015625	0		-1.057926025390625	-0.05251591491699219	0		-0.6755509643554688	-2.242274169921875	0		1.0532730712890626	-0.5380956420898437	0		2.90306298828125	-0.49684014892578127	0		4.40769482421875	-0.25657269287109374	0		5.5166240234375	0.14543368530273437	0		-0.12260111999511719	5.97958935546875	0		
-0.00998188591003418	0.012971955299377442	0		0.570657470703125	-2.3696650390625	0		-0.9830506591796875	-0.053977409362792966	0		-0.6756231079101562	-2.24164697265625	0		1.0531773681640626	-0.5374446411132813	0		2.926022216796875	-0.492496337890625	0		4.409392578125	-0.26990289306640625	0		5.5165185546875	0.14614620971679687	0		-0.12180116271972656	5.9792099609375	0		
-0.013142353057861328	0.010704104423522948	0		0.5415780029296875	-2.36854931640625	0		-0.991267333984375	-0.06018697738647461	0		-0.6797648315429687	-2.24491015625	0		1.07399365234375	-0.5420430297851563	0		2.92898388671875	-0.4868084716796875	0		4.409279296875	-0.2691494445800781	0		5.5122841796875	0.1389744873046875	0		-0.13716346740722657	5.96911474609375	0		
-0.00646344518661499	-0.0016572149991989137	0		0.576275390625	-2.382305908203125	0		-0.991399169921875	-0.059463436126708985	0		-0.6798638305664062	-2.244181884765625	0		1.0738690185546875	-0.5412883911132812	0		2.90680322265625	-0.4897084045410156	0		4.40118017578125	-0.26622955322265623	0		5.5021650390625	0.14093989562988282	0		-0.16949803161621094	5.96231298828125	0		
-0.006610598087310791	-8.733059763908386E-4	0		0.551238525390625	-2.37615380859375	0		-1.0565531005859374	-0.058758052825927734	0		-0.6799773559570312	-2.243407958984375	0		1.0556597900390625	-0.5452285766601562	0		2.916619140625	-0.4920245361328125	0		4.4108056640625	-0.28152197265625	0		5.52273974609375	0.12250587463378906	0		-0.15359219360351561	5.97286328125	0		
0.02631343650817871	0.005475820064544678	0		0.5910242919921875	-2.38189599609375	0		-0.9776762084960937	-0.05608594131469727	0		-0.6740030517578125	-2.235680419921875	0		1.06260888671875	-0.5374898071289063	0		2.949478271484375	-0.4906317138671875	0		4.38994091796875	-0.2603321228027344	0		5.51668017578125	0.1304976806640625	0		-0.11879977416992188	5.976181640625	0		
-8.377919793128967E-4	0.007724007129669189	0		0.5530239868164063	-2.371482177734375	0		-0.9878282470703125	-0.05409674072265625	0		-0.6802387084960938	-2.24174365234375	0		1.082388916015625	-0.5409014892578125	0		2.920377685546875	-0.4853124389648438	0		4.40868798828125	-0.2656806640625	0		5.5224091796875	0.12435252380371094	0		-0.12002644348144531	5.9790537109375	0		
-0.007115039825439453	0.001699599027633667	0		0.5658941040039063	-2.369772216796875	0		-0.9861198120117187	-0.061250190734863284	0		-0.6824120483398437	-2.242835693359375	0		1.05517919921875	-0.5426090698242187	0		2.91613623046875	-0.48932351684570313	0		4.4054287109375	-0.2706844482421875	0		5.5073896484375	0.136535400390625	0		-0.1344467010498047	5.96914306640625	0		
-0.0023739750385284425	-0.002461545944213867	0		0.546628662109375	-2.37658056640625	0		-0.9863056030273437	-0.06035421371459961	0		-0.6845949096679688	-2.243906494140625	0		1.0759407958984375	-0.5459845581054688	0		2.92689794921875	-0.49252874755859377	0		4.4011748046875	-0.2746530456542969	0		5.5138271484375	0.11142705535888672	0		-0.16781625366210937	5.963525390625	0		
0.023426881790161135	-0.0019105590581893921	0		0.5553366088867188	-2.384777099609375	0		-0.986501220703125	-0.05944486618041992	0		-0.7217266235351563	-2.240462890625	0		1.0548116455078125	-0.5407449340820313	0		2.919838134765625	-0.48246356201171875	0		4.41402392578125	-0.2708525085449219	0		5.52184326171875	0.12731404876708985	0		-0.16711326599121093	5.96343212890625	0		
-0.007705755233764648	0.004462080955505371	0		0.5503512573242187	-2.37076953125	0		-0.986707763671875	-0.058530471801757813	0		-0.6808762817382813	-2.238131591796875	0		1.057669189453125	-0.5358435668945313	0		2.926508544921875	-0.4905903930664062	0		4.40973486328125	-0.27579998779296877	0		5.51751953125	0.12038325500488281	0		-0.1522820281982422	5.97314306640625	0		
-0.0029986250400543214	3.1757399439811705E-4	0		0.5570243530273438	-2.379933349609375	0		-0.9869276123046875	-0.057619537353515625	0		-0.6851183471679687	-2.241158203125	0		1.0753406982421876	-0.54315673828125	0		2.929380859375	-0.48366082763671875	0		4.4095185546875	-0.27480340576171874	0		5.5272958984375	0.12125444030761719	0		6.298040151596069E-4	5.9888779296875	0		
-0.0032357559204101564	0.0012334309816360474	0		0.5728695678710938	-2.376236572265625	0		-0.991220458984375	-0.06066315460205078	0		-0.687359375	-2.243225341796875	0		1.0751129150390626	-0.5422222290039063	0		2.929152099609375	-0.48269427490234373	0		4.40621533203125	-0.27876791381835936	0		5.52195751953125	0.11533802032470702	0		-0.14621009826660156	5.95588232421875	0		
-0.0075338478088378905	-8.126270174980164E-4	0		0.5535460815429688	-2.383057373046875	0		-0.9914750366210937	-0.059784996032714845	0		-0.6906014404296875	-2.24429833984375	0		1.06875390625	-0.5492191162109376	0		2.928905517578125	-0.48174301147460935	0		4.41085009765625	-0.28585955810546876	0		5.5127001953125	0.11646602630615234	0		-0.1465768585205078	5.9567763671875	0		
-0.0028808999061584475	-0.005014750003814697	0		0.553317626953125	-2.382177734375	0		-0.985821044921875	-0.06402074432373046	0		-0.6700625610351563	-2.25974072265625	0		1.0506051025390626	-0.5400737915039062	0		2.93143994140625	-0.4948578796386719	0		4.39166748046875	-0.2786339416503906	0		5.51652197265625	0.12438567352294921	0		-0.19899276733398438	5.95638330078125	0		
8.807089924812317E-4	-2.3962299525737761E-4	0		0.5581707153320312	-2.37440576171875	0		-0.9820582275390625	-0.05926584243774414	0		-0.6621838989257812	-2.250036865234375	0		1.0891893310546874	-0.5487734375	0		2.936495849609375	-0.47003863525390627	0		4.41744677734375	-0.2730813903808594	0		5.5303369140625	0.1331317138671875	0		-0.16335704040527343	5.96069921875	0		
-0.004375755786895752	0.0046193327903747555	0		0.5808065185546875	-2.38093115234375	0		-0.9864271240234375	-0.06244152069091797	0		-0.6784190063476563	-2.247035888671875	0		1.079916748046875	-0.545833984375	0		2.928051025390625	-0.47907223510742186	0		4.41405419921875	-0.2781543884277344	0		5.515908203125	0.12623919677734374	0		-0.14684394836425782	5.95824267578125	0		
2.3567000031471253E-4	0.0012850840091705323	0		0.5525328979492188	-2.37978466796875	0		-0.990799072265625	-0.06467086791992188	0		-0.6807409057617188	-2.249286376953125	0		1.0675850830078124	-0.545902587890625	0		2.924646240234375	-0.4842253723144531	0		4.40965869140625	-0.28225927734375	0		5.53047314453125	0.11989048767089844	0		-0.013028037071228028	5.97807373046875	0		
